<svg width="220" height="220" xmlns="http://www.w3.org/2000/svg">
    <rect width="220" height="220" fill="white"/>
    <!-- グリッド -->
    <line x1="20" y1="20" x2="200" y2="20" stroke="black" stroke-width="2"/>
    <line x1="20" y1="80" x2="200" y2="80" stroke="black" stroke-width="2"/>
    <line x1="20" y1="140" x2="200" y2="140" stroke="black" stroke-width="2"/>
    <line x1="20" y1="200" x2="200" y2="200" stroke="black" stroke-width="2"/>
    
    <line x1="20" y1="20" x2="20" y2="200" stroke="black" stroke-width="2"/>
    <line x1="80" y1="20" x2="80" y2="200" stroke="black" stroke-width="2"/>
    <line x1="140" y1="20" x2="140" y2="200" stroke="black" stroke-width="2"/>
    <line x1="200" y1="20" x2="200" y2="200" stroke="black" stroke-width="2"/>
    
    <!-- サンプル図形 -->
    <circle cx="50" cy="50" r="20" fill="none" stroke="black" stroke-width="2"/>
    <rect x="90" y="30" width="40" height="40" fill="none" stroke="black" stroke-width="2"/>
    <polygon points="170,30 190,70 150,70" fill="none" stroke="black" stroke-width="2"/>
    
    <rect x="30" y="90" width="40" height="40" fill="black"/>
    <circle cx="110" cy="110" r="20" fill="black"/>
    <polygon points="170,90 190,130 150,130" fill="black"/>
    
    <polygon points="50,150 70,190 30,190" fill="none" stroke="black" stroke-width="2"/>
    <circle cx="110" cy="170" r="20" fill="none" stroke="black" stroke-width="2"/>
    
    <!-- 最後のセルに？ -->
    <text x="170" y="180" text-anchor="middle" font-size="36" font-weight="bold">?</text>
  </svg>